<svg width="62" height="62" viewBox="0 0 62 62" fill="none" xmlns="http://www.w3.org/2000/svg">
<g clip-path="url(#clip0_38_13799)">
<path d="M61.7049 61.7267L30.9863 61.7267C14.0231 61.7267 0.273254 47.9721 0.273254 31.0028C0.273254 14.0281 14.0231 0.273438 30.9918 0.273438C47.9551 0.273438 61.7104 14.0281 61.7104 31.0028L61.7104 61.7322L61.7049 61.7267Z" stroke="#05A2FB" stroke-miterlimit="10"/>
<path d="M61.7104 61.7266L34.4676 61.7266C19.4225 61.7266 7.22473 49.5245 7.22473 34.4741C7.22473 19.4238 19.4225 7.22168 34.4676 7.22168C49.5126 7.22168 61.7104 19.4238 61.7104 34.4741L61.7104 61.7266Z" stroke="#05A2FB" stroke-miterlimit="10"/>
<path d="M61.7102 61.727L37.9376 61.727C24.8108 61.727 14.165 51.0775 14.165 37.946C14.165 24.8145 24.8108 14.165 37.9376 14.165C51.0645 14.165 61.7102 24.8145 61.7102 37.946L61.7102 61.727Z" stroke="#05A2FB" stroke-miterlimit="10"/>
<path d="M61.7104 61.7267L41.4081 61.7267C30.1939 61.7267 21.1057 52.6352 21.1057 41.4172C21.1057 30.1991 30.1939 21.1077 41.4081 21.1077C52.6222 21.1077 61.7104 30.1991 61.7104 41.4172L61.7104 61.7267Z" stroke="#05A2FB" stroke-miterlimit="10"/>
<path d="M61.7159 61.7266L44.8892 61.7266C35.5933 61.7266 28.0626 54.1878 28.0626 44.8941C28.0626 35.5949 35.5988 28.0615 44.8892 28.0615C54.1851 28.0615 61.7159 35.6004 61.7159 44.8941L61.7159 61.7266Z" stroke="#05A2FB" stroke-miterlimit="10"/>
<path d="M61.7157 61.727H48.3593C40.9816 61.727 35.0029 55.7463 35.0029 48.366C35.0029 40.9857 40.9816 35.0049 48.3593 35.0049C55.737 35.0049 61.7157 40.9857 61.7157 48.366V61.727Z" stroke="#05A2FB" stroke-miterlimit="10"/>
<path d="M61.7213 61.7267H51.8352C46.3757 61.7267 41.9491 57.2985 41.9491 51.8371C41.9491 46.3757 46.3757 41.9475 51.8352 41.9475C57.2947 41.9475 61.7213 46.3757 61.7213 51.8371V61.7267Z" stroke="#05A2FB" stroke-miterlimit="10"/>
<path d="M61.7213 61.7267H55.3109C51.7696 61.7267 48.9005 58.8566 48.9005 55.314C48.9005 51.7715 51.7696 48.9014 55.3109 48.9014C58.8522 48.9014 61.7213 51.7715 61.7213 55.314V61.7267Z" stroke="#05A2FB" stroke-miterlimit="10"/>
<path d="M61.727 61.7271H58.7868C57.1637 61.7271 55.8467 60.4096 55.8467 58.7859C55.8467 57.1622 57.1637 55.8447 58.7868 55.8447C60.4099 55.8447 61.727 57.1622 61.727 58.7859V61.7271Z" stroke="#05A2FB" stroke-miterlimit="10"/>
</g>
<defs>
<clipPath id="clip0_38_13799">
<rect width="62" height="62" fill="white"/>
</clipPath>
</defs>
</svg>
